<svg width="128" height="160" viewBox="0 0 128 160" fill="none" xmlns="http://www.w3.org/2000/svg">
<g clip-path="url(#clip0)">
<path d="M80.5603 78.2727L66.0483 63.7607C64.9177 62.6247 63.0777 62.6247 61.947 63.7607L47.435 78.2727C46.299 79.4087 46.299 81.2434 47.435 82.374C48.0003 82.9394 48.7417 83.222 49.4883 83.222C50.2297 83.222 50.9763 82.9394 51.5417 82.374L61.099 72.8167V105.713C61.099 107.313 62.4003 108.614 64.0003 108.614C65.6003 108.614 66.9017 107.313 66.9017 105.713V72.8167L76.459 82.374C77.0243 82.9394 77.7657 83.222 78.5123 83.222C79.2537 83.222 80.0003 82.9394 80.5657 82.374C81.6963 81.2434 81.6963 79.4034 80.5603 78.2727Z" fill="#8B8B8B"/>
<path d="M95.801 48.5588C94.4037 32.2388 80.6703 19.3855 63.9983 19.3855C46.3983 19.3855 32.0783 33.7055 32.0783 51.3055C32.0783 52.7615 32.185 54.2228 32.393 55.6842C32.0463 55.6682 31.6997 55.6575 31.353 55.6575C19.753 55.6575 10.313 65.0975 10.313 76.6975C10.313 88.2975 19.753 97.7375 31.353 97.7375H49.4917C51.097 97.7375 52.393 96.4362 52.393 94.8362C52.393 93.2362 51.0917 91.9348 49.4917 91.9348H31.353C22.953 91.9348 16.1157 85.1028 16.1157 76.6975C16.1157 68.2922 22.9477 61.4602 31.353 61.4602C32.6597 61.4602 33.9983 61.6468 35.337 62.0095C36.345 62.2815 37.4223 61.9935 38.1583 61.2468C38.8943 60.5055 39.1717 59.4228 38.889 58.4148C38.217 56.0468 37.881 53.6522 37.881 51.3002C37.881 36.9002 49.5983 25.1828 63.9983 25.1828C78.3983 25.1828 90.1157 36.9002 90.1157 51.3002C90.1157 52.9055 91.417 54.2015 93.017 54.2015C103.417 54.2015 111.881 62.6655 111.881 73.0655C111.881 83.4655 103.422 91.9295 93.017 91.9295H78.505C76.8997 91.9295 75.6037 93.2308 75.6037 94.8308C75.6037 96.4362 76.905 97.7322 78.505 97.7322H93.017C106.617 97.7322 117.684 86.6655 117.684 73.0655C117.684 60.4095 108.1 49.9455 95.801 48.5588Z" fill="#9E9E9E"/>
</g>
<defs>
<clipPath id="clip0">
<rect width="128" height="160" fill="white"/>
</clipPath>
</defs>
</svg>
